<svg width="469" height="503" viewBox="0 0 469 503" fill="none" xmlns="http://www.w3.org/2000/svg">
<path d="M206.99 125.252C251.225 64.2126 346.232 57.8353 377.09 129.048C407.948 200.261 450.055 332.969 420.261 373.511C390.467 414.204 322.974 336.765 252.593 369.107C182.06 401.449 32.6334 362.578 31.8734 278.003C31.2653 193.277 152.266 200.717 206.99 125.252Z" fill="#FF2D23"/>
<path d="M94.7675 149.069L31.3973 166.58C30.0944 166.935 28.673 166.225 28.3177 164.805L3.32493 74.8853C2.96958 73.5838 3.68028 72.164 5.10166 71.8091L68.4719 54.4166C69.7748 54.0617 71.1962 54.7716 71.5515 56.1914L96.5443 146.111C96.7812 147.413 96.0705 148.714 94.7675 149.069Z" fill="#2C2E3E" stroke="white" stroke-width="0.5" stroke-miterlimit="10"/>
<path d="M93.5827 154.631L28.4358 163.86C27.1328 164.096 25.8299 163.15 25.593 161.73L12.5636 69.3252C12.3267 68.0237 13.2743 66.7222 14.6957 66.4856L79.8426 57.2569C81.1456 57.0203 82.4485 57.9668 82.6854 59.3866L95.7148 151.791C95.9517 153.093 95.0041 154.394 93.5827 154.631Z" fill="#2C2E3E" stroke="white" stroke-width="0.5" stroke-miterlimit="10"/>
<path d="M91.3314 158.416L26.4214 169.301C25.1185 169.537 23.8155 168.591 23.5786 167.289L8.0618 75.2395C7.8249 73.938 8.77249 72.6366 10.0754 72.3999L74.9855 61.5149C76.2884 61.2783 77.5914 62.2248 77.8283 63.5263L93.3451 155.576C93.582 156.877 92.6344 158.179 91.3314 158.416Z" fill="#2C2E3E" stroke="white" stroke-width="0.5" stroke-miterlimit="10"/>
<path d="M90.3847 163.149L26.5407 178.767C25.2377 179.122 23.9348 178.294 23.5795 176.992L1.31105 86.244C0.955699 84.9425 1.78484 83.641 3.08778 83.2861L66.9318 67.6684C68.2347 67.3134 69.5377 68.1416 69.893 69.4431L92.1614 160.073C92.5168 161.493 91.6876 162.794 90.3847 163.149Z" fill="#2C2E3E" stroke="white" stroke-width="0.5" stroke-miterlimit="10"/>
<path d="M29.6211 120.555L23.1064 122.093C22.3957 122.33 21.5665 121.857 21.3296 121.028L16.8286 102.571C16.5917 101.861 17.0655 101.033 17.8946 100.796L24.4093 99.2582C25.12 99.0215 25.9491 99.4948 26.186 100.323L30.6871 118.78C30.924 119.609 30.4502 120.318 29.6211 120.555Z" fill="#2C2E3E" stroke="white" stroke-width="0.5" stroke-miterlimit="10"/>
<path d="M42.6492 117.361L36.1345 118.899C35.4238 119.135 34.5946 118.662 34.3577 117.834L28.3168 93.3425C28.0799 92.6326 28.5537 91.8044 29.3829 91.5678L35.8976 90.0297C36.6083 89.793 37.4374 90.2663 37.6743 91.0945L43.7152 115.586C43.8337 116.414 43.3599 117.124 42.6492 117.361Z" fill="#2C2E3E" stroke="white" stroke-width="0.5" stroke-miterlimit="10"/>
<path d="M55.2056 114.284L48.6909 115.822C47.9802 116.059 47.151 115.586 47.0326 114.876L45.8481 110.143C45.6112 109.433 46.085 108.605 46.9141 108.369L53.4288 106.83C54.1395 106.594 54.9687 107.067 55.2056 107.895L56.3901 112.628C56.5085 113.338 56.0347 114.048 55.2056 114.284Z" fill="#2C2E3E" stroke="white" stroke-width="0.5" stroke-miterlimit="10"/>
<path d="M67.997 111.209L61.4823 112.747C60.7716 112.983 59.9425 112.51 59.7056 111.682L56.0336 96.8923C55.7967 96.1824 56.2705 95.3542 57.0997 95.1176L63.7328 93.5795C64.4435 93.3428 65.2727 93.8161 65.5096 94.6443L69.1815 109.434C69.2999 110.144 68.8261 110.972 67.997 111.209Z" fill="#2C2E3E" stroke="white" stroke-width="0.5" stroke-miterlimit="10"/>
<path d="M18.7227 123.158L71.5509 110.262" stroke="white" stroke-width="0.5" stroke-miterlimit="10"/>
<path d="M18.7232 123.158L10.7871 90.6211" stroke="white" stroke-width="0.5" stroke-miterlimit="10"/>
<path d="M21.5664 134.516L42.1765 129.547" stroke="white" stroke-width="0.5" stroke-miterlimit="10"/>
<path d="M45.7285 128.601L74.2747 121.62" stroke="white" stroke-width="0.5" stroke-miterlimit="10"/>
<path d="M23.4609 142.089L32.1077 140.077" stroke="white" stroke-width="0.5" stroke-miterlimit="10"/>
<path d="M61.8379 132.742L76.1702 129.311" stroke="white" stroke-width="0.5" stroke-miterlimit="10"/>
<path d="M35.0684 139.368L58.5213 133.57" stroke="white" stroke-width="0.5" stroke-miterlimit="10"/>
<path d="M25.2383 149.779L78.0665 136.883" stroke="white" stroke-width="0.5" stroke-miterlimit="10"/>
<path d="M27.1328 157.352L43.1234 153.447" stroke="white" stroke-width="0.5" stroke-miterlimit="10"/>
<path d="M45.4922 152.855L67.0499 147.649" stroke="white" stroke-width="0.5" stroke-miterlimit="10"/>
<path d="M29.0273 164.924L68.9447 155.222" stroke="white" stroke-width="0.5" stroke-miterlimit="10"/>
<path d="M199.238 459.058C199.238 459.058 203.384 475.149 209.07 481.656C214.755 488.163 224.942 493.133 229.917 487.927C234.891 482.721 226.245 457.046 224.231 451.13C221.27 442.73 212.149 420.25 212.149 420.25L202.318 429.715L201.133 443.558L199.238 459.058Z" fill="#2C2E3E"/>
<path d="M202.675 446.398C202.675 446.398 212.625 471.954 218.429 472.9C230.866 474.912 221.745 451.367 221.745 451.367L211.085 417.41L204.333 424.154L202.201 440.127L202.675 446.398Z" fill="#2C2E3E" stroke="white" stroke-width="0.5" stroke-miterlimit="10"/>
<path d="M185.026 437.405C185.026 437.405 171.523 474.793 169.628 485.323C167.732 495.853 168.206 501.414 174.839 502.715C181.472 504.017 194.857 495.143 197.226 482.957C199.595 470.77 204.333 433.737 204.333 433.737L185.026 437.405Z" fill="#2C2E3E"/>
<path d="M186.683 431.016C186.683 431.016 178.273 463.198 176.496 471.362C174.483 479.999 175.312 485.914 181.945 485.914C187.749 485.914 195.33 477.987 197.225 465.564C199.12 453.141 200.423 443.202 202.318 434.684C202.2 434.684 199.357 427.111 186.683 431.016Z" fill="#2C2E3E" stroke="white" stroke-width="0.5" stroke-miterlimit="10"/>
<path d="M169.627 284.896C169.627 284.896 174.01 302.17 175.905 309.978C177.8 317.669 179.103 340.149 178.511 348.195C177.918 356.24 190 403.803 190 403.803L185.144 429.596C185.144 429.596 191.54 437.168 204.333 433.973C204.333 433.973 209.663 422.26 212.624 415.871C215.585 409.482 235.958 367.598 237.854 350.916C239.749 334.115 239.157 319.444 239.986 316.841C240.696 314.238 249.935 285.014 249.935 285.014H169.627V284.896Z" fill="white" stroke="#2C2E3E" stroke-width="0.5" stroke-miterlimit="10"/>
<path d="M208.478 285.843C208.478 285.843 206.227 309.624 205.635 321.101C205.043 332.578 190 403.804 190 403.804" stroke="#2C2E3E" stroke-width="0.5" stroke-miterlimit="10"/>
<path d="M272.204 258.629C272.204 258.629 275.284 259.339 276.468 262.178L295.657 304.654C295.657 304.654 298.144 310.806 291.037 310.806H124.617C124.617 310.806 118.931 310.688 121.3 303.826L139.66 262.297C139.66 262.297 140.963 258.629 146.056 258.629" fill="white"/>
<path d="M272.204 258.629C272.204 258.629 275.284 259.339 276.468 262.178L295.657 304.654C295.657 304.654 298.144 310.806 291.037 310.806H124.617C124.617 310.806 118.931 310.688 121.3 303.826L139.66 262.297C139.66 262.297 140.963 258.629 146.056 258.629" stroke="#2C2E3E" stroke-width="0.5" stroke-miterlimit="10"/>
<path d="M146.174 182.671H272.322C274.691 182.671 276.587 184.564 276.587 186.93V254.252C276.587 256.618 274.691 258.511 272.322 258.511H146.174C143.805 258.511 141.91 256.618 141.91 254.252V186.93C141.91 184.564 143.805 182.671 146.174 182.671Z" fill="white" stroke="#2C2E3E" stroke-width="0.5" stroke-miterlimit="10"/>
<path d="M264.03 244.432H266.873C267.465 244.432 268.057 244.905 268.057 245.615V248.454C268.057 249.046 267.584 249.638 266.873 249.638H264.03C263.438 249.638 262.846 249.164 262.846 248.454V245.615C262.964 244.905 263.438 244.432 264.03 244.432Z" fill="white" stroke="#2C2E3E" stroke-width="0.5" stroke-miterlimit="10"/>
<path d="M256.925 244.432H259.768C260.36 244.432 260.952 244.905 260.952 245.615V248.454C260.952 249.046 260.478 249.638 259.768 249.638H256.925C256.332 249.638 255.74 249.164 255.74 248.454V245.615C255.74 244.905 256.214 244.432 256.925 244.432Z" fill="white" stroke="#2C2E3E" stroke-width="0.5" stroke-miterlimit="10"/>
<path d="M249.698 244.432H252.541C253.133 244.432 253.725 244.905 253.725 245.615V248.454C253.725 249.046 253.252 249.638 252.541 249.638H249.698C249.106 249.638 248.514 249.164 248.514 248.454V245.615C248.632 244.905 249.106 244.432 249.698 244.432Z" fill="white" stroke="#2C2E3E" stroke-width="0.5" stroke-miterlimit="10"/>
<path d="M242.593 244.432H245.435C246.028 244.432 246.62 244.905 246.62 245.615V248.454C246.62 249.046 246.146 249.638 245.435 249.638H242.593C242 249.638 241.408 249.164 241.408 248.454V245.615C241.408 244.905 242 244.432 242.593 244.432Z" fill="white" stroke="#2C2E3E" stroke-width="0.5" stroke-miterlimit="10"/>
<path d="M235.485 244.432H238.328C238.92 244.432 239.513 244.905 239.513 245.615V248.454C239.513 249.046 239.039 249.638 238.328 249.638H235.485C234.893 249.638 234.301 249.164 234.301 248.454V245.615C234.301 244.905 234.775 244.432 235.485 244.432Z" fill="white" stroke="#2C2E3E" stroke-width="0.5" stroke-miterlimit="10"/>
<path d="M228.259 244.432H231.102C231.694 244.432 232.286 244.905 232.286 245.615V248.454C232.286 249.046 231.812 249.638 231.102 249.638H228.259C227.666 249.638 227.074 249.164 227.074 248.454V245.615C227.074 244.905 227.666 244.432 228.259 244.432Z" fill="white" stroke="#2C2E3E" stroke-width="0.5" stroke-miterlimit="10"/>
<path d="M221.153 244.432H223.996C224.588 244.432 225.181 244.905 225.181 245.615V248.454C225.181 249.046 224.707 249.638 223.996 249.638H221.153C220.561 249.638 219.969 249.164 219.969 248.454V245.615C219.969 244.905 220.443 244.432 221.153 244.432Z" fill="white" stroke="#2C2E3E" stroke-width="0.5" stroke-miterlimit="10"/>
<path d="M213.927 244.432H216.769C217.362 244.432 217.954 244.905 217.954 245.615V248.454C217.954 249.046 217.48 249.638 216.769 249.638H213.927C213.334 249.638 212.742 249.164 212.742 248.454V245.615C212.861 244.905 213.334 244.432 213.927 244.432Z" fill="white" stroke="#2C2E3E" stroke-width="0.5" stroke-miterlimit="10"/>
<path d="M206.821 244.432H209.664C210.256 244.432 210.848 244.905 210.848 245.615V248.454C210.848 249.046 210.375 249.638 209.664 249.638H206.821C206.229 249.638 205.637 249.164 205.637 248.454V245.615C205.637 244.905 206.229 244.432 206.821 244.432Z" fill="white" stroke="#2C2E3E" stroke-width="0.5" stroke-miterlimit="10"/>
<path d="M199.714 244.432H202.557C203.149 244.432 203.741 244.905 203.741 245.615V248.454C203.741 249.046 203.267 249.638 202.557 249.638H199.714C199.122 249.638 198.529 249.164 198.529 248.454V245.615C198.529 244.905 199.003 244.432 199.714 244.432Z" fill="white" stroke="#2C2E3E" stroke-width="0.5" stroke-miterlimit="10"/>
<path d="M254.911 237.451H257.754C258.346 237.451 258.938 237.924 258.938 238.634V241.474C258.938 242.065 258.465 242.657 257.754 242.657H254.911C254.319 242.657 253.727 242.184 253.727 241.474V238.634C253.727 238.043 254.2 237.451 254.911 237.451Z" fill="white" stroke="#2C2E3E" stroke-width="0.5" stroke-miterlimit="10"/>
<path d="M261.425 237.451H266.993C267.585 237.451 268.059 237.924 268.059 238.516V241.592C268.059 242.184 267.585 242.657 266.993 242.657H261.425C260.833 242.657 260.359 242.184 260.359 241.592V238.516C260.478 237.924 260.952 237.451 261.425 237.451Z" fill="white" stroke="#2C2E3E" stroke-width="0.5" stroke-miterlimit="10"/>
<path d="M197.227 223.963H221.983C222.457 223.963 222.93 224.436 222.93 224.909V228.222C222.93 228.696 222.457 229.169 221.983 229.169H197.227C196.753 229.169 196.279 228.696 196.279 228.222V224.909C196.279 224.436 196.753 223.963 197.227 223.963Z" fill="white" stroke="#2C2E3E" stroke-width="0.5" stroke-miterlimit="10"/>
<path d="M196.161 197.697H222.338C223.641 197.697 224.588 198.762 224.588 199.945V215.09C224.588 216.391 223.522 217.338 222.338 217.338H196.161C194.858 217.338 193.91 216.273 193.91 215.09V199.945C193.91 198.644 194.858 197.697 196.161 197.697Z" fill="white" stroke="#2C2E3E" stroke-width="0.5" stroke-miterlimit="10"/>
<path d="M247.684 237.451H250.527C251.12 237.451 251.712 237.924 251.712 238.634V241.474C251.712 242.065 251.238 242.657 250.527 242.657H247.684C247.092 242.657 246.5 242.184 246.5 241.474V238.634C246.5 238.043 247.092 237.451 247.684 237.451Z" fill="white" stroke="#2C2E3E" stroke-width="0.5" stroke-miterlimit="10"/>
<path d="M240.46 237.451H243.303C243.895 237.451 244.487 237.924 244.487 238.634V241.474C244.487 242.065 244.013 242.657 243.303 242.657H240.46C239.868 242.657 239.275 242.184 239.275 241.474V238.634C239.394 238.043 239.868 237.451 240.46 237.451Z" fill="white" stroke="#2C2E3E" stroke-width="0.5" stroke-miterlimit="10"/>
<path d="M233.352 237.451H236.195C236.788 237.451 237.38 237.924 237.38 238.634V241.474C237.38 242.065 236.906 242.657 236.195 242.657H233.352C232.76 242.657 232.168 242.184 232.168 241.474V238.634C232.168 238.043 232.642 237.451 233.352 237.451Z" fill="white" stroke="#2C2E3E" stroke-width="0.5" stroke-miterlimit="10"/>
<path d="M226.128 237.451H228.971C229.563 237.451 230.155 237.924 230.155 238.634V241.474C230.155 242.065 229.681 242.657 228.971 242.657H226.128C225.536 242.657 224.943 242.184 224.943 241.474V238.634C225.062 238.043 225.536 237.451 226.128 237.451Z" fill="white" stroke="#2C2E3E" stroke-width="0.5" stroke-miterlimit="10"/>
<path d="M219.02 237.451H221.863C222.455 237.451 223.048 237.924 223.048 238.634V241.474C223.048 242.065 222.574 242.657 221.863 242.657H219.02C218.428 242.657 217.836 242.184 217.836 241.474V238.634C217.836 238.043 218.31 237.451 219.02 237.451Z" fill="white" stroke="#2C2E3E" stroke-width="0.5" stroke-miterlimit="10"/>
<path d="M211.796 237.451H214.639C215.231 237.451 215.823 237.924 215.823 238.634V241.474C215.823 242.065 215.349 242.657 214.639 242.657H211.796C211.204 242.657 210.611 242.184 210.611 241.474V238.634C210.611 238.043 211.204 237.451 211.796 237.451Z" fill="white" stroke="#2C2E3E" stroke-width="0.5" stroke-miterlimit="10"/>
<path d="M204.688 237.451H207.531C208.123 237.451 208.716 237.924 208.716 238.634V241.474C208.716 242.065 208.242 242.657 207.531 242.657H204.688C204.096 242.657 203.504 242.184 203.504 241.474V238.634C203.504 238.043 203.978 237.451 204.688 237.451Z" fill="white" stroke="#2C2E3E" stroke-width="0.5" stroke-miterlimit="10"/>
<path d="M197.464 237.451H200.307C200.899 237.451 201.491 237.924 201.491 238.634V241.474C201.491 242.065 201.017 242.657 200.307 242.657H197.464C196.872 242.657 196.279 242.184 196.279 241.474V238.634C196.279 238.043 196.872 237.451 197.464 237.451Z" fill="white" stroke="#2C2E3E" stroke-width="0.5" stroke-miterlimit="10"/>
<path d="M264.03 230.825H266.873C267.465 230.825 268.057 231.298 268.057 232.008V234.848C268.057 235.44 267.584 236.031 266.873 236.031H264.03C263.438 236.031 262.846 235.558 262.846 234.848V232.008C262.964 231.417 263.438 230.825 264.03 230.825Z" fill="white" stroke="#2C2E3E" stroke-width="0.5" stroke-miterlimit="10"/>
<path d="M256.925 230.825H259.768C260.36 230.825 260.952 231.298 260.952 232.008V234.848C260.952 235.44 260.478 236.031 259.768 236.031H256.925C256.332 236.031 255.74 235.558 255.74 234.848V232.008C255.74 231.417 256.214 230.825 256.925 230.825Z" fill="white" stroke="#2C2E3E" stroke-width="0.5" stroke-miterlimit="10"/>
<path d="M249.698 230.825H252.541C253.133 230.825 253.725 231.298 253.725 232.008V234.848C253.725 235.44 253.252 236.031 252.541 236.031H249.698C249.106 236.031 248.514 235.558 248.514 234.848V232.008C248.632 231.417 249.106 230.825 249.698 230.825Z" fill="white" stroke="#2C2E3E" stroke-width="0.5" stroke-miterlimit="10"/>
<path d="M242.593 230.825H245.435C246.028 230.825 246.62 231.298 246.62 232.008V234.848C246.62 235.44 246.146 236.031 245.435 236.031H242.593C242 236.031 241.408 235.558 241.408 234.848V232.008C241.408 231.417 242 230.825 242.593 230.825Z" fill="white" stroke="#2C2E3E" stroke-width="0.5" stroke-miterlimit="10"/>
<path d="M235.485 230.825H238.328C238.92 230.825 239.513 231.298 239.513 232.008V234.848C239.513 235.44 239.039 236.031 238.328 236.031H235.485C234.893 236.031 234.301 235.558 234.301 234.848V232.008C234.301 231.417 234.775 230.825 235.485 230.825Z" fill="white" stroke="#2C2E3E" stroke-width="0.5" stroke-miterlimit="10"/>
<path d="M228.259 230.825H231.102C231.694 230.825 232.286 231.298 232.286 232.008V234.848C232.286 235.44 231.812 236.031 231.102 236.031H228.259C227.666 236.031 227.074 235.558 227.074 234.848V232.008C227.074 231.417 227.666 230.825 228.259 230.825Z" fill="white" stroke="#2C2E3E" stroke-width="0.5" stroke-miterlimit="10"/>
<path d="M221.153 230.825H223.996C224.588 230.825 225.181 231.298 225.181 232.008V234.848C225.181 235.44 224.707 236.031 223.996 236.031H221.153C220.561 236.031 219.969 235.558 219.969 234.848V232.008C219.969 231.417 220.443 230.825 221.153 230.825Z" fill="white" stroke="#2C2E3E" stroke-width="0.5" stroke-miterlimit="10"/>
<path d="M213.927 230.825H216.769C217.362 230.825 217.954 231.298 217.954 232.008V234.848C217.954 235.44 217.48 236.031 216.769 236.031H213.927C213.334 236.031 212.742 235.558 212.742 234.848V232.008C212.861 231.417 213.334 230.825 213.927 230.825Z" fill="white" stroke="#2C2E3E" stroke-width="0.5" stroke-miterlimit="10"/>
<path d="M206.821 230.825H209.664C210.256 230.825 210.848 231.298 210.848 232.008V234.848C210.848 235.44 210.375 236.031 209.664 236.031H206.821C206.229 236.031 205.637 235.558 205.637 234.848V232.008C205.637 231.417 206.229 230.825 206.821 230.825Z" fill="white" stroke="#2C2E3E" stroke-width="0.5" stroke-miterlimit="10"/>
<path d="M199.714 230.825H202.557C203.149 230.825 203.741 231.298 203.741 232.008V234.848C203.741 235.44 203.267 236.031 202.557 236.031H199.714C199.122 236.031 198.529 235.558 198.529 234.848V232.008C198.529 231.417 199.003 230.825 199.714 230.825Z" fill="white" stroke="#2C2E3E" stroke-width="0.5" stroke-miterlimit="10"/>
<path d="M192.487 230.825H195.33C195.922 230.825 196.515 231.298 196.515 232.008V234.848C196.515 235.44 196.041 236.031 195.33 236.031H192.487C191.895 236.031 191.303 235.558 191.303 234.848V232.008C191.303 231.417 191.895 230.825 192.487 230.825Z" fill="white" stroke="#2C2E3E" stroke-width="0.5" stroke-miterlimit="10"/>
<path d="M190.237 223.963H193.08C193.672 223.963 194.264 224.436 194.264 225.146V227.986C194.264 228.577 193.791 229.169 193.08 229.169H190.237C189.645 229.169 189.053 228.696 189.053 227.986V225.146C189.171 224.554 189.645 223.963 190.237 223.963Z" fill="white" stroke="#2C2E3E" stroke-width="0.5" stroke-miterlimit="10"/>
<path d="M183.13 223.963H185.973C186.565 223.963 187.157 224.436 187.157 225.146V227.986C187.157 228.577 186.683 229.169 185.973 229.169H183.13C182.538 229.169 181.945 228.696 181.945 227.986V225.146C181.945 224.554 182.419 223.963 183.13 223.963Z" fill="white" stroke="#2C2E3E" stroke-width="0.5" stroke-miterlimit="10"/>
<path d="M175.905 223.963H178.748C179.34 223.963 179.932 224.436 179.932 225.146V227.986C179.932 228.577 179.459 229.169 178.748 229.169H175.905C175.313 229.169 174.721 228.696 174.721 227.986V225.146C174.721 224.554 175.313 223.963 175.905 223.963Z" fill="white" stroke="#2C2E3E" stroke-width="0.5" stroke-miterlimit="10"/>
<path d="M168.798 223.963H171.641C172.233 223.963 172.825 224.436 172.825 225.146V227.986C172.825 228.577 172.351 229.169 171.641 229.169H168.798C168.206 229.169 167.613 228.696 167.613 227.986V225.146C167.613 224.554 168.087 223.963 168.798 223.963Z" fill="white" stroke="#2C2E3E" stroke-width="0.5" stroke-miterlimit="10"/>
<path d="M247.093 223.963H249.935C250.528 223.963 251.12 224.436 251.12 225.146V227.986C251.12 228.577 250.646 229.169 249.935 229.169H247.093C246.5 229.169 245.908 228.696 245.908 227.986V225.146C246.027 224.554 246.5 223.963 247.093 223.963Z" fill="white" stroke="#2C2E3E" stroke-width="0.5" stroke-miterlimit="10"/>
<path d="M254.081 223.963H256.924C257.516 223.963 258.108 224.436 258.108 225.146V227.986C258.108 228.577 257.634 229.169 256.924 229.169H254.081C253.489 229.169 252.896 228.696 252.896 227.986V225.146C253.015 224.554 253.489 223.963 254.081 223.963Z" fill="white" stroke="#2C2E3E" stroke-width="0.5" stroke-miterlimit="10"/>
<path d="M261.069 223.963H266.873C267.466 223.963 268.058 224.436 268.058 225.146V227.986C268.058 228.577 267.584 229.169 266.873 229.169H261.069C260.477 229.169 259.885 228.696 259.885 227.986V225.146C260.003 224.554 260.477 223.963 261.069 223.963Z" fill="white" stroke="#2C2E3E" stroke-width="0.5" stroke-miterlimit="10"/>
<path d="M240.104 223.963H242.947C243.539 223.963 244.132 224.436 244.132 225.146V227.986C244.132 228.577 243.658 229.169 242.947 229.169H240.104C239.512 229.169 238.92 228.696 238.92 227.986V225.146C239.038 224.554 239.512 223.963 240.104 223.963Z" fill="white" stroke="#2C2E3E" stroke-width="0.5" stroke-miterlimit="10"/>
<path d="M233.116 223.963H235.959C236.551 223.963 237.143 224.436 237.143 225.146V227.986C237.143 228.577 236.67 229.169 235.959 229.169H233.116C232.524 229.169 231.932 228.696 231.932 227.986V225.146C232.05 224.554 232.524 223.963 233.116 223.963Z" fill="white" stroke="#2C2E3E" stroke-width="0.5" stroke-miterlimit="10"/>
<path d="M226.128 223.963H228.971C229.563 223.963 230.155 224.436 230.155 225.146V227.986C230.155 228.577 229.681 229.169 228.971 229.169H226.128C225.536 229.169 224.943 228.696 224.943 227.986V225.146C225.062 224.554 225.536 223.963 226.128 223.963Z" fill="white" stroke="#2C2E3E" stroke-width="0.5" stroke-miterlimit="10"/>
<path d="M161.573 223.963H164.416C165.008 223.963 165.6 224.436 165.6 225.146V227.986C165.6 228.577 165.127 229.169 164.416 229.169H161.573C160.981 229.169 160.389 228.696 160.389 227.986V225.146C160.389 224.554 160.981 223.963 161.573 223.963Z" fill="white" stroke="#2C2E3E" stroke-width="0.5" stroke-miterlimit="10"/>
<path d="M185.382 230.825H188.225C188.817 230.825 189.409 231.298 189.409 232.008V234.848C189.409 235.44 188.935 236.031 188.225 236.031H185.382C184.79 236.031 184.197 235.558 184.197 234.848V232.008C184.197 231.417 184.671 230.825 185.382 230.825Z" fill="white" stroke="#2C2E3E" stroke-width="0.5" stroke-miterlimit="10"/>
<path d="M178.155 230.825H180.998C181.59 230.825 182.182 231.298 182.182 232.008V234.848C182.182 235.44 181.709 236.031 180.998 236.031H178.155C177.563 236.031 176.971 235.558 176.971 234.848V232.008C177.089 231.417 177.563 230.825 178.155 230.825Z" fill="white" stroke="#2C2E3E" stroke-width="0.5" stroke-miterlimit="10"/>
<path d="M171.048 230.825H173.891C174.483 230.825 175.075 231.298 175.075 232.008V234.848C175.075 235.44 174.601 236.031 173.891 236.031H171.048C170.456 236.031 169.863 235.558 169.863 234.848V232.008C169.863 231.417 170.456 230.825 171.048 230.825Z" fill="white" stroke="#2C2E3E" stroke-width="0.5" stroke-miterlimit="10"/>
<path d="M163.942 230.825H166.785C167.377 230.825 167.97 231.298 167.97 232.008V234.848C167.97 235.44 167.496 236.031 166.785 236.031H163.942C163.35 236.031 162.758 235.558 162.758 234.848V232.008C162.758 231.417 163.232 230.825 163.942 230.825Z" fill="white" stroke="#2C2E3E" stroke-width="0.5" stroke-miterlimit="10"/>
<path d="M156.716 230.825H159.558C160.151 230.825 160.743 231.298 160.743 232.008V234.848C160.743 235.44 160.269 236.031 159.558 236.031H156.716C156.123 236.031 155.531 235.558 155.531 234.848V232.008C155.531 231.417 156.123 230.825 156.716 230.825Z" fill="white" stroke="#2C2E3E" stroke-width="0.5" stroke-miterlimit="10"/>
<path d="M149.61 237.569H157.546C158.139 237.569 158.731 238.043 158.731 238.752V241.592C158.731 242.184 158.257 242.775 157.546 242.775H149.61C149.018 242.775 148.426 242.302 148.426 241.592V238.752C148.426 238.161 148.9 237.569 149.61 237.569Z" fill="white" stroke="#2C2E3E" stroke-width="0.5" stroke-miterlimit="10"/>
<path d="M149.61 223.963H157.546C158.139 223.963 158.731 224.436 158.731 225.146V227.986C158.731 228.577 158.257 229.169 157.546 229.169H149.61C149.018 229.169 148.426 228.696 148.426 227.986V225.146C148.426 224.554 148.9 223.963 149.61 223.963Z" fill="white" stroke="#2C2E3E" stroke-width="0.5" stroke-miterlimit="10"/>
<path d="M149.61 230.825H152.453C153.045 230.825 153.638 231.298 153.638 232.008V234.848C153.638 235.44 153.164 236.031 152.453 236.031H149.61C149.018 236.031 148.426 235.558 148.426 234.848V232.008C148.426 231.417 148.9 230.825 149.61 230.825Z" fill="white" stroke="#2C2E3E" stroke-width="0.5" stroke-miterlimit="10"/>
<path d="M190.237 237.451H193.08C193.672 237.451 194.264 237.924 194.264 238.634V241.474C194.264 242.065 193.791 242.657 193.08 242.657H190.237C189.645 242.657 189.053 242.184 189.053 241.474V238.634C189.171 238.043 189.645 237.451 190.237 237.451Z" fill="white" stroke="#2C2E3E" stroke-width="0.5" stroke-miterlimit="10"/>
<path d="M183.13 237.451H185.973C186.565 237.451 187.157 237.924 187.157 238.634V241.474C187.157 242.065 186.683 242.657 185.973 242.657H183.13C182.538 242.657 181.945 242.184 181.945 241.474V238.634C181.945 238.043 182.419 237.451 183.13 237.451Z" fill="white" stroke="#2C2E3E" stroke-width="0.5" stroke-miterlimit="10"/>
<path d="M175.905 237.451H178.748C179.34 237.451 179.932 237.924 179.932 238.634V241.474C179.932 242.065 179.459 242.657 178.748 242.657H175.905C175.313 242.657 174.721 242.184 174.721 241.474V238.634C174.721 238.043 175.313 237.451 175.905 237.451Z" fill="white" stroke="#2C2E3E" stroke-width="0.5" stroke-miterlimit="10"/>
<path d="M168.798 237.451H171.641C172.233 237.451 172.825 237.924 172.825 238.634V241.474C172.825 242.065 172.351 242.657 171.641 242.657H168.798C168.206 242.657 167.613 242.184 167.613 241.474V238.634C167.613 238.043 168.087 237.451 168.798 237.451Z" fill="white" stroke="#2C2E3E" stroke-width="0.5" stroke-miterlimit="10"/>
<path d="M161.573 237.451H164.416C165.008 237.451 165.6 237.924 165.6 238.634V241.474C165.6 242.065 165.127 242.657 164.416 242.657H161.573C160.981 242.657 160.389 242.184 160.389 241.474V238.634C160.389 238.043 160.981 237.451 161.573 237.451Z" fill="white" stroke="#2C2E3E" stroke-width="0.5" stroke-miterlimit="10"/>
<path d="M192.487 244.432H195.33C195.922 244.432 196.515 244.905 196.515 245.615V248.454C196.515 249.046 196.041 249.638 195.33 249.638H192.487C191.895 249.638 191.303 249.164 191.303 248.454V245.615C191.303 244.905 191.895 244.432 192.487 244.432Z" fill="white" stroke="#2C2E3E" stroke-width="0.5" stroke-miterlimit="10"/>
<path d="M185.382 244.432H188.225C188.817 244.432 189.409 244.905 189.409 245.615V248.454C189.409 249.046 188.935 249.638 188.225 249.638H185.382C184.79 249.638 184.197 249.164 184.197 248.454V245.615C184.197 244.905 184.671 244.432 185.382 244.432Z" fill="white" stroke="#2C2E3E" stroke-width="0.5" stroke-miterlimit="10"/>
<path d="M178.155 244.432H180.998C181.59 244.432 182.182 244.905 182.182 245.615V248.454C182.182 249.046 181.709 249.638 180.998 249.638H178.155C177.563 249.638 176.971 249.164 176.971 248.454V245.615C177.089 244.905 177.563 244.432 178.155 244.432Z" fill="white" stroke="#2C2E3E" stroke-width="0.5" stroke-miterlimit="10"/>
<path d="M171.048 244.432H173.891C174.483 244.432 175.075 244.905 175.075 245.615V248.454C175.075 249.046 174.601 249.638 173.891 249.638H171.048C170.456 249.638 169.863 249.164 169.863 248.454V245.615C169.863 244.905 170.456 244.432 171.048 244.432Z" fill="white" stroke="#2C2E3E" stroke-width="0.5" stroke-miterlimit="10"/>
<path d="M163.942 244.432H166.785C167.377 244.432 167.97 244.905 167.97 245.615V248.454C167.97 249.046 167.496 249.638 166.785 249.638H163.942C163.35 249.638 162.758 249.164 162.758 248.454V245.615C162.758 244.905 163.232 244.432 163.942 244.432Z" fill="white" stroke="#2C2E3E" stroke-width="0.5" stroke-miterlimit="10"/>
<path d="M156.716 244.432H159.558C160.151 244.432 160.743 244.905 160.743 245.615V248.454C160.743 249.046 160.269 249.638 159.558 249.638H156.716C156.123 249.638 155.531 249.164 155.531 248.454V245.615C155.531 244.905 156.123 244.432 156.716 244.432Z" fill="white" stroke="#2C2E3E" stroke-width="0.5" stroke-miterlimit="10"/>
<path d="M149.61 244.432H152.453C153.045 244.432 153.638 244.905 153.638 245.615V248.454C153.638 249.046 153.164 249.638 152.453 249.638H149.61C149.018 249.638 148.426 249.164 148.426 248.454V245.615C148.426 244.905 148.9 244.432 149.61 244.432Z" fill="white" stroke="#2C2E3E" stroke-width="0.5" stroke-miterlimit="10"/>
<path d="M290.445 307.257H125.327C125.327 307.257 123.787 307.494 124.498 305.601L142.147 264.9C142.147 264.9 143.45 261.351 148.306 261.351H268.887C268.887 261.351 271.967 261.351 273.27 263.835L291.866 304.772C291.866 304.772 292.814 307.257 290.445 307.257Z" stroke="#5A5F64" stroke-width="0.5" stroke-miterlimit="10"/>
<path d="M285.351 57.1378C284.877 54.4166 276.467 51.4587 268.057 48.1458C259.648 44.833 241.999 41.4018 241.999 41.4018C241.999 41.4018 193.316 38.6806 182.182 41.4018C171.048 44.1231 148.779 55.9547 145.344 58.2027C141.909 60.4507 141.791 61.9888 140.132 71.2174C138.474 80.4461 135.395 146.703 135.395 146.703L149.016 183.026L245.907 139.959L269.36 116.059L269.597 135.226L292.695 130.612C292.813 130.494 285.825 59.8591 285.351 57.1378ZM163.941 168.71L158.255 141.26L160.506 116.414C160.506 116.414 164.296 127.536 168.916 131.913L163.941 168.71Z" fill="white"/>
<path d="M269.006 137.237L253.963 170.721C253.963 170.721 262.847 176.045 265.334 176.873C267.821 177.82 273.033 178.529 273.033 178.529L293.406 140.787V137.237L291.037 112.154L269.124 131.44L269.006 137.237Z" fill="white"/>
<path d="M165.955 182.316C165.955 182.316 163.823 180.541 163.823 176.755C163.823 166.106 166.31 143.981 168.442 135.108C168.442 135.108 169.508 132.623 168.442 131.085C167.376 129.665 159.558 116.65 158.019 108.605C156.479 100.559 178.51 100.914 178.51 100.914L269.361 109.552V117.005L259.055 134.753C259.055 134.753 258.7 150.016 259.529 156.76L253.962 170.484L258.819 173.442L250.883 182.316H165.955Z" fill="white"/>
<path d="M148.07 180.304C148.07 180.304 151.268 188.586 152.098 191.189C152.927 193.792 157.546 208.7 157.546 208.7C157.546 208.7 158.849 211.658 158.731 215.089C158.612 218.52 156.599 238.279 156.599 240.172C156.599 242.065 157.546 243.958 158.612 243.248C159.678 242.538 162.758 227.985 162.758 227.985L162.047 243.958C162.047 243.958 162.166 249.637 166.667 250.82C166.667 250.82 167.022 255.671 171.286 253.423C171.286 253.423 171.405 241 171.405 239.462C171.523 237.924 172.471 228.459 172.471 228.459C172.471 228.459 174.84 245.496 175.55 247.508C176.261 249.519 176.972 251.649 178.156 251.294C179.341 250.82 179.459 247.626 179.459 243.603C179.459 239.58 178.986 220.887 178.986 220.887L182.539 230.825C182.539 230.825 183.842 235.321 185.974 234.966C188.106 234.611 185.974 223.963 185.974 223.963C185.974 223.963 183.842 212.013 183.605 211.54C183.368 211.066 174.129 199.471 174.129 199.471C174.129 199.471 169.746 194.265 168.444 190.598C167.141 186.812 164.89 174.625 164.89 174.625L148.07 180.304Z" fill="white"/>
<path d="M161.691 95.2361C161.691 95.2361 159.441 137.002 158.256 141.261C158.256 141.261 164.534 167.882 165.363 179.595C165.363 179.595 157.072 185.866 151.031 188.232C151.031 188.232 136.106 151.081 135.277 146.703C134.448 142.444 138.712 68.8517 141.555 61.9893C144.397 55.127 175.313 43.6504 175.313 43.6504" stroke="#2C2E3E" stroke-width="0.5" stroke-miterlimit="10"/>
<path d="M165.48 179.595C165.48 179.595 166.902 189.06 170.455 194.503C174.009 199.945 183.011 210.239 183.603 211.54C184.195 212.841 186.091 222.898 186.446 227.158C186.801 231.417 187.157 235.913 185.143 234.848C183.129 233.665 179.576 223.017 178.984 219.94C178.984 219.94 179.931 246.443 179.339 249.401C178.747 252.359 176.733 252.004 175.549 247.508C174.483 243.012 172.587 229.997 172.351 227.158" stroke="#2C2E3E" stroke-width="0.5" stroke-miterlimit="10"/>
<path d="M153.281 195.33L151.148 188.231" stroke="#2C2E3E" stroke-width="0.5" stroke-miterlimit="10"/>
<path d="M169.036 191.899C169.036 191.899 168.088 192.846 165.482 193.556C162.876 194.266 161.099 193.438 157.783 193.556C152.808 193.792 152.097 198.17 152.097 198.17C152.097 198.17 151.505 202.311 154.229 204.796C156.954 207.28 161.218 206.097 162.876 204.796C166.548 201.72 167.259 197.697 171.997 196.632" stroke="#2C2E3E" stroke-width="0.5" stroke-miterlimit="10"/>
<path d="M158.256 204.678C161.004 204.678 163.231 202.453 163.231 199.709C163.231 196.964 161.004 194.739 158.256 194.739C155.509 194.739 153.281 196.964 153.281 199.709C153.281 202.453 155.509 204.678 158.256 204.678Z" stroke="#2C2E3E" stroke-width="0.5" stroke-miterlimit="10"/>
<path d="M253.016 177.347C253.016 177.347 248.515 189.534 246.383 190.835C244.369 192.137 237.38 198.762 236.788 199.354C236.196 199.945 231.932 203.85 229.8 209.647C227.668 215.445 226.602 220.059 226.602 220.059C226.602 220.059 230.037 222.189 232.05 217.693C234.064 213.197 237.973 210.239 237.973 210.239C237.973 210.239 239.394 215.563 239.157 219.349C238.92 223.135 237.854 228.341 237.144 231.417C236.433 234.494 234.301 240.173 235.841 240.883C237.38 241.474 239.749 238.635 241.526 234.849C244.132 229.288 245.672 224.082 245.672 224.082L244.724 233.429C244.724 233.429 242.948 241.593 243.421 242.657C243.895 243.604 245.435 245.142 246.975 243.367C246.975 243.367 247.922 242.894 248.633 242.421C249.344 242.066 251.476 239.936 252.66 235.913C253.845 232.009 255.622 222.307 255.622 222.307L256.332 233.429C256.332 233.429 256.214 235.322 257.754 235.204C259.293 235.085 259.53 231.181 259.53 231.181L262.255 196.514L266.519 187.167L271.968 176.992L255.74 170.13L253.016 177.347Z" fill="white"/>
<path d="M255.148 171.431C255.148 171.431 249.818 186.575 246.383 190.834C242.948 195.094 236.433 197.933 231.932 205.506C227.549 213.078 226.602 220.058 226.602 220.058C226.602 220.058 230.037 222.188 232.05 217.692C234.064 213.196 237.973 210.238 237.973 210.238C237.973 210.238 239.868 215.681 238.92 223.135C237.973 230.589 234.775 238.516 235.13 240.054C235.485 241.592 238.091 241.237 240.342 237.451C242.829 233.192 245.672 225.501 246.027 218.994" stroke="#2C2E3E" stroke-width="0.5" stroke-miterlimit="10"/>
<path d="M247.447 242.539C247.447 242.539 249.579 242.894 250.764 239.936C251.948 236.978 254.791 229.169 255.857 219.704C255.857 219.704 255.976 234.257 256.686 234.849C257.397 235.44 259.055 235.913 259.529 231.181C259.884 226.448 261.661 199.354 262.253 196.514C262.846 193.556 271.374 178.53 271.374 178.53" stroke="#2C2E3E" stroke-width="0.5" stroke-miterlimit="10"/>
<path d="M269.717 99.7315C269.717 99.7315 269.125 135.226 269.125 137.238C269.125 137.238 261.663 150.371 254.082 170.721C254.082 170.721 266.519 179.24 273.152 178.53C273.152 178.53 292.578 144.337 293.526 140.787C294.473 137.356 286.537 61.0422 285.353 57.1378C284.168 53.2333 261.189 45.6611 261.189 45.6611" stroke="#2C2E3E" stroke-width="0.5" stroke-miterlimit="10"/>
<path d="M175.432 49.9209C175.432 49.9209 172.47 53.9436 174.01 63.054C175.669 72.2826 183.96 94.4077 199.477 109.434C214.994 124.46 231.576 100.56 231.576 100.56" stroke="#2C2E3E" stroke-width="0.5" stroke-miterlimit="10"/>
<path d="M184.078 71.2168C184.078 71.2168 194.975 101.032 210.611 101.032C223.048 101.032 238.802 86.5979 239.157 84.3499" stroke="#2C2E3E" stroke-width="0.5" stroke-miterlimit="10"/>
<path d="M184.078 71.2175C184.078 71.2175 175.786 61.5156 174.839 45.6613C173.891 29.9253 181.353 9.57496 192.843 5.07896C204.332 0.582957 226.009 -3.32147 237.972 6.49875C249.935 16.319 246.856 23.5362 257.753 28.7421C268.532 33.948 257.516 48.0276 260.833 55.8365C264.149 63.527 274.928 71.5725 266.755 89.0832C258.582 106.594 257.042 106.002 255.502 119.017C253.963 132.032 247.685 136.646 239.275 134.043C239.275 134.043 241.289 123.986 235.366 115.823C229.444 107.54 233.352 90.503 233.352 90.503C233.352 90.503 239.867 84.8238 239.986 82.9308C240.104 81.0377 239.986 74.767 231.813 71.0992C223.64 67.4314 225.18 60.2141 216.888 60.4508C208.478 60.6874 198.055 56.9013 194.975 51.8137C194.857 51.932 186.21 56.6647 184.078 71.2175Z" fill="#2C2E3E"/>
<path d="M164.416 171.432C163.35 163.268 169.036 131.914 169.036 131.914C169.036 131.914 160.27 120.319 160.626 114.403" stroke="#2C2E3E" stroke-width="0.5" stroke-miterlimit="10"/>
<path d="M169.035 131.913C169.035 131.913 180.762 138.066 190.356 138.302" stroke="#2C2E3E" stroke-width="0.5" stroke-miterlimit="10"/>
<path d="M260.004 155.932C260.004 155.932 258.819 148.597 258.701 142.917C258.582 137.12 259.056 134.872 259.056 134.872C259.056 134.872 262.965 127.418 269.48 115.941" stroke="#2C2E3E" stroke-width="0.5" stroke-miterlimit="10"/>
<path d="M166.547 250.229C166.547 250.229 161.69 250.111 161.927 244.077C162.164 238.042 162.993 228.932 162.638 228.104C162.283 227.276 159.677 242.065 158.492 243.367C157.426 244.668 156.479 242.065 156.479 242.065C156.479 242.065 159.44 215.444 158.374 211.658C157.308 207.872 156.715 206.452 156.715 206.452" stroke="#2C2E3E" stroke-width="0.5" stroke-miterlimit="10"/>
<path d="M171.997 230.589C171.997 230.589 170.694 246.68 171.286 253.542C171.286 253.542 167.14 256.382 166.667 250.229C166.193 244.077 166.074 232.837 166.667 229.879" stroke="#2C2E3E" stroke-width="0.5" stroke-miterlimit="10"/>
<path d="M245.671 222.544C245.671 222.544 244.486 236.505 243.538 240.764C242.591 245.024 245.907 245.024 247.447 242.539C248.869 240.054 251.948 226.448 252.067 220.414" stroke="#2C2E3E" stroke-width="0.5" stroke-miterlimit="10"/>
<path d="M365.778 186.812L420.028 166.58C421.804 165.87 422.752 163.859 422.041 162.084L393.377 85.2973C392.666 83.5225 390.652 82.576 388.876 83.2859L334.626 103.518C332.849 104.228 331.902 106.239 332.612 108.014L361.277 184.801C361.988 186.576 363.883 187.522 365.778 186.812Z" fill="white" stroke="#2C2E3E" stroke-width="0.5" stroke-miterlimit="10"/>
<path d="M388.047 99.377L351.328 113.22" stroke="#2C2E3E" stroke-width="0.5" stroke-miterlimit="10"/>
<path d="M365.305 121.856L355.947 125.406" stroke="#2C2E3E" stroke-width="0.5" stroke-miterlimit="10"/>
<path d="M392.548 111.563L386.98 113.693" stroke="#2C2E3E" stroke-width="0.5" stroke-miterlimit="10"/>
<path d="M385.204 114.403L367.674 120.911" stroke="#2C2E3E" stroke-width="0.5" stroke-miterlimit="10"/>
<path d="M390.298 105.529L353.697 119.254" stroke="#2C2E3E" stroke-width="0.5" stroke-miterlimit="10"/>
<path d="M379.4 123.395L358.197 131.44" stroke="#2C2E3E" stroke-width="0.5" stroke-miterlimit="10"/>
<path d="M394.917 117.598L381.295 122.804" stroke="#2C2E3E" stroke-width="0.5" stroke-miterlimit="10"/>
<path d="M368.978 134.28L360.449 137.475" stroke="#2C2E3E" stroke-width="0.5" stroke-miterlimit="10"/>
<path d="M399.892 131.559L363.291 145.402" stroke="#2C2E3E" stroke-width="0.5" stroke-miterlimit="10"/>
<path d="M377.268 154.039L367.91 157.47" stroke="#2C2E3E" stroke-width="0.5" stroke-miterlimit="10"/>
<path d="M404.51 143.746L398.943 145.876" stroke="#2C2E3E" stroke-width="0.5" stroke-miterlimit="10"/>
<path d="M397.049 146.467L379.637 153.092" stroke="#2C2E3E" stroke-width="0.5" stroke-miterlimit="10"/>
<path d="M402.26 137.711L365.541 151.436" stroke="#2C2E3E" stroke-width="0.5" stroke-miterlimit="10"/>
<path d="M391.363 155.577L370.16 163.623" stroke="#2C2E3E" stroke-width="0.5" stroke-miterlimit="10"/>
<path d="M406.762 149.779L393.141 154.985" stroke="#2C2E3E" stroke-width="0.5" stroke-miterlimit="10"/>
<path d="M380.94 166.462L372.412 169.656" stroke="#2C2E3E" stroke-width="0.5" stroke-miterlimit="10"/>
<path d="M409.131 155.813L383.428 165.515" stroke="#2C2E3E" stroke-width="0.5" stroke-miterlimit="10"/>
<path d="M333.442 112.274L334.863 111.327L335.455 112.747L334.152 113.693L333.797 114.403L334.271 114.758L334.863 114.64L335.337 115.941L333.678 116.06L332.612 115.705L332.139 114.64L332.376 113.457L333.442 112.274Z" fill="white"/>
<path d="M336.523 110.262C336.523 110.026 336.404 109.907 336.404 109.671C336.404 108.488 337.352 107.541 338.536 107.541C339.721 107.541 340.668 108.488 340.668 109.671C340.668 110.854 339.721 111.8 338.536 111.8C338.063 111.8 337.707 111.682 337.352 111.445" fill="white"/>
<path d="M336.523 110.262C336.523 110.026 336.404 109.907 336.404 109.671C336.404 108.488 337.352 107.541 338.536 107.541C339.721 107.541 340.668 108.488 340.668 109.671C340.668 110.854 339.721 111.8 338.536 111.8C338.063 111.8 337.707 111.682 337.352 111.445" stroke="#2C2E3E" stroke-width="0.5" stroke-miterlimit="10"/>
<path d="M336.64 108.843C336.64 108.843 337.351 109.789 336.285 110.499C335.219 111.209 332.258 112.511 332.139 114.049C332.021 115.35 332.731 116.533 335.456 115.942" stroke="#2C2E3E" stroke-width="0.5" stroke-miterlimit="10"/>
<path d="M334.982 114.64C334.982 114.64 334.035 114.995 333.798 114.403C333.561 113.693 335.693 112.628 336.167 112.274C337.47 111.445 338.18 111.09 338.299 109.789C338.417 108.606 337.825 107.659 337.825 107.659" stroke="#2C2E3E" stroke-width="0.5" stroke-miterlimit="10"/>
<path d="M336.522 120.674L337.943 119.728L338.535 121.147L337.232 122.094L336.877 122.804L337.351 123.159L337.943 123.04L338.417 124.342L336.759 124.46L335.693 123.987L335.219 123.04L335.456 121.739L336.522 120.674Z" fill="white"/>
<path d="M339.603 118.663C339.603 118.426 339.484 118.308 339.484 118.071C339.484 116.888 340.432 115.941 341.616 115.941C342.801 115.941 343.749 116.888 343.749 118.071C343.749 119.254 342.801 120.201 341.616 120.201C341.143 120.201 340.787 120.082 340.432 119.846" fill="white"/>
<path d="M339.603 118.663C339.603 118.426 339.484 118.308 339.484 118.071C339.484 116.888 340.432 115.941 341.616 115.941C342.801 115.941 343.749 116.888 343.749 118.071C343.749 119.254 342.801 120.201 341.616 120.201C341.143 120.201 340.787 120.082 340.432 119.846" stroke="#2C2E3E" stroke-width="0.5" stroke-miterlimit="10"/>
<path d="M339.72 117.243C339.72 117.243 340.431 118.19 339.365 118.9C338.299 119.609 335.338 120.911 335.219 122.449C335.101 123.751 335.812 124.934 338.536 124.342" stroke="#2C2E3E" stroke-width="0.5" stroke-miterlimit="10"/>
<path d="M338.062 123.04C338.062 123.04 337.115 123.395 336.878 122.804C336.641 122.094 338.773 121.029 339.247 120.674C340.55 119.846 341.26 119.491 341.379 118.189C341.497 117.006 340.905 116.06 340.905 116.06" stroke="#2C2E3E" stroke-width="0.5" stroke-miterlimit="10"/>
<path d="M339.602 129.074L341.023 128.128L341.615 129.548L340.312 130.494L339.957 131.204L340.431 131.559L341.142 131.441L341.615 132.742L339.839 132.861L338.773 132.387L338.299 131.441L338.536 130.139L339.602 129.074Z" fill="white"/>
<path d="M342.683 127.063C342.683 126.826 342.564 126.708 342.564 126.471C342.564 125.288 343.512 124.342 344.697 124.342C345.881 124.342 346.829 125.288 346.829 126.471C346.829 127.655 345.881 128.601 344.697 128.601C344.223 128.601 343.867 128.483 343.512 128.246" fill="white"/>
<path d="M342.683 127.063C342.683 126.826 342.564 126.708 342.564 126.471C342.564 125.288 343.512 124.342 344.697 124.342C345.881 124.342 346.829 125.288 346.829 126.471C346.829 127.655 345.881 128.601 344.697 128.601C344.223 128.601 343.867 128.483 343.512 128.246" stroke="#2C2E3E" stroke-width="0.5" stroke-miterlimit="10"/>
<path d="M342.801 125.644C342.801 125.644 343.511 126.59 342.445 127.3C341.379 128.01 338.418 129.311 338.299 130.849C338.181 132.151 338.892 133.334 341.616 132.743" stroke="#2C2E3E" stroke-width="0.5" stroke-miterlimit="10"/>
<path d="M341.261 131.322C341.261 131.322 340.314 131.677 340.077 131.086C339.84 130.376 341.972 129.311 342.446 128.956C343.749 128.128 344.459 127.773 344.578 126.471C344.696 125.288 344.104 124.342 344.104 124.342" stroke="#2C2E3E" stroke-width="0.5" stroke-miterlimit="10"/>
<path d="M342.682 137.474L344.222 136.527L344.814 137.829L343.393 138.775L343.156 139.485L343.629 139.84H344.222L344.696 141.023L343.037 141.26L341.971 140.787L341.379 139.84L341.734 138.539L342.682 137.474Z" fill="white"/>
<path d="M345.88 135.462C345.88 135.226 345.762 135.108 345.762 134.871C345.762 133.688 346.709 132.741 347.894 132.741C349.078 132.741 350.026 133.688 350.026 134.871C350.026 136.054 349.078 137.001 347.894 137.001C347.42 137.001 347.065 136.882 346.709 136.646" fill="white"/>
<path d="M345.88 135.462C345.88 135.226 345.762 135.108 345.762 134.871C345.762 133.688 346.709 132.741 347.894 132.741C349.078 132.741 350.026 133.688 350.026 134.871C350.026 136.054 349.078 137.001 347.894 137.001C347.42 137.001 347.065 136.882 346.709 136.646" stroke="#2C2E3E" stroke-width="0.5" stroke-miterlimit="10"/>
<path d="M345.998 133.925C345.998 133.925 346.708 134.871 345.642 135.581C344.576 136.291 341.615 137.593 341.497 139.131C341.378 140.432 342.089 141.615 344.813 141.024" stroke="#2C2E3E" stroke-width="0.5" stroke-miterlimit="10"/>
<path d="M344.34 139.722C344.34 139.722 343.392 140.077 343.155 139.485C342.918 138.775 345.05 137.71 345.524 137.356C346.827 136.527 347.538 136.172 347.656 134.871C347.775 133.688 347.182 132.741 347.182 132.741" stroke="#2C2E3E" stroke-width="0.5" stroke-miterlimit="10"/>
<path d="M345.879 145.756L347.3 144.81L347.893 146.111L346.59 147.058L346.234 147.767L346.708 148.122H347.3L347.774 149.306L346.116 149.542L345.05 149.069L344.576 148.122L344.813 146.821L345.879 145.756Z" fill="white"/>
<path d="M348.96 143.745C348.96 143.508 348.842 143.39 348.842 143.153C348.842 141.97 349.789 141.023 350.974 141.023C352.158 141.023 353.106 141.97 353.106 143.153C353.106 144.336 352.158 145.283 350.974 145.283C350.5 145.283 350.145 145.165 349.789 144.928" fill="white"/>
<path d="M348.96 143.745C348.96 143.508 348.842 143.39 348.842 143.153C348.842 141.97 349.789 141.023 350.974 141.023C352.158 141.023 353.106 141.97 353.106 143.153C353.106 144.336 352.158 145.283 350.974 145.283C350.5 145.283 350.145 145.165 349.789 144.928" stroke="#2C2E3E" stroke-width="0.5" stroke-miterlimit="10"/>
<path d="M349.078 142.324C349.078 142.324 349.789 143.271 348.722 143.981C347.656 144.691 344.695 145.992 344.577 147.53C344.458 148.832 345.169 150.015 347.893 149.423" stroke="#2C2E3E" stroke-width="0.5" stroke-miterlimit="10"/>
<path d="M347.42 148.004C347.42 148.004 346.472 148.359 346.235 147.767C345.998 147.058 348.13 145.993 348.604 145.638C349.907 144.81 350.618 144.455 350.736 143.153C350.855 141.97 350.262 141.023 350.262 141.023" stroke="#2C2E3E" stroke-width="0.5" stroke-miterlimit="10"/>
<path d="M348.959 154.158L350.381 153.093L350.973 154.513L349.67 155.459L349.433 156.169L349.788 156.524L350.499 156.406L350.973 157.707L349.196 157.944L348.248 157.47L347.656 156.406L348.012 155.222L348.959 154.158Z" fill="white"/>
<path d="M352.158 152.028C352.158 151.791 352.039 151.673 352.039 151.436C352.039 150.253 352.987 149.307 354.171 149.307C355.356 149.307 356.303 150.253 356.303 151.436C356.303 152.619 355.356 153.566 354.171 153.566C353.697 153.566 353.342 153.448 352.987 153.211" fill="white"/>
<path d="M352.158 152.028C352.158 151.791 352.039 151.673 352.039 151.436C352.039 150.253 352.987 149.307 354.171 149.307C355.356 149.307 356.303 150.253 356.303 151.436C356.303 152.619 355.356 153.566 354.171 153.566C353.697 153.566 353.342 153.448 352.987 153.211" stroke="#2C2E3E" stroke-width="0.5" stroke-miterlimit="10"/>
<path d="M352.275 150.608C352.275 150.608 352.986 151.555 351.92 152.265C350.854 152.975 347.892 154.276 347.774 155.814C347.656 157.116 348.366 158.299 351.091 157.707" stroke="#2C2E3E" stroke-width="0.5" stroke-miterlimit="10"/>
<path d="M350.617 156.405C350.617 156.405 349.669 156.76 349.432 156.169C349.195 155.459 351.328 154.394 351.801 154.039C353.104 153.211 353.815 152.856 353.933 151.554C354.052 150.371 353.46 149.425 353.46 149.425" stroke="#2C2E3E" stroke-width="0.5" stroke-miterlimit="10"/>
<path d="M352.039 162.44L353.579 161.493L354.053 162.913L352.75 163.859L352.513 164.569L352.868 164.924L353.579 164.806L354.053 166.107L352.276 166.226L351.329 165.753L350.736 164.806L351.092 163.505L352.039 162.44Z" fill="white"/>
<path d="M355.238 160.428C355.238 160.192 355.119 160.073 355.119 159.837C355.119 158.654 356.067 157.707 357.251 157.707C358.436 157.707 359.383 158.654 359.383 159.837C359.383 161.02 358.436 161.966 357.251 161.966C356.777 161.966 356.422 161.848 356.067 161.611" fill="white"/>
<path d="M355.238 160.428C355.238 160.192 355.119 160.073 355.119 159.837C355.119 158.654 356.067 157.707 357.251 157.707C358.436 157.707 359.383 158.654 359.383 159.837C359.383 161.02 358.436 161.966 357.251 161.966C356.777 161.966 356.422 161.848 356.067 161.611" stroke="#2C2E3E" stroke-width="0.5" stroke-miterlimit="10"/>
<path d="M355.355 159.009C355.355 159.009 356.066 159.955 355 160.665C353.934 161.375 350.973 162.677 350.854 164.215C350.736 165.516 351.446 166.699 354.171 166.108" stroke="#2C2E3E" stroke-width="0.5" stroke-miterlimit="10"/>
<path d="M353.697 164.806C353.697 164.806 352.749 165.161 352.512 164.569C352.276 163.859 354.408 162.794 354.881 162.44C356.184 161.611 356.895 161.256 357.014 159.955C357.132 158.772 356.54 157.825 356.54 157.825" stroke="#2C2E3E" stroke-width="0.5" stroke-miterlimit="10"/>
<path d="M355.237 170.84L356.658 169.894L357.25 171.313L355.947 172.142L355.592 172.851L356.066 173.206H356.776L357.25 174.39L355.473 174.626L354.407 174.153L353.934 173.206L354.171 171.905L355.237 170.84Z" fill="white"/>
<path d="M358.318 168.829C358.318 168.592 358.199 168.474 358.199 168.237C358.199 167.054 359.147 166.107 360.331 166.107C361.516 166.107 362.463 167.054 362.463 168.237C362.463 169.42 361.516 170.367 360.331 170.367C359.857 170.367 359.502 170.248 359.147 170.012" fill="white"/>
<path d="M358.318 168.829C358.318 168.592 358.199 168.474 358.199 168.237C358.199 167.054 359.147 166.107 360.331 166.107C361.516 166.107 362.463 167.054 362.463 168.237C362.463 169.42 361.516 170.367 360.331 170.367C359.857 170.367 359.502 170.248 359.147 170.012" stroke="#2C2E3E" stroke-width="0.5" stroke-miterlimit="10"/>
<path d="M358.435 167.409C358.435 167.409 359.146 168.356 358.08 169.066C357.014 169.776 354.053 171.077 353.934 172.615C353.816 173.917 354.526 175.1 357.251 174.508" stroke="#2C2E3E" stroke-width="0.5" stroke-miterlimit="10"/>
<path d="M356.777 173.088C356.777 173.088 355.829 173.443 355.593 172.851C355.356 172.142 357.488 171.077 357.962 170.722C359.264 169.894 359.975 169.539 360.094 168.237C360.212 167.054 359.62 166.107 359.62 166.107" stroke="#2C2E3E" stroke-width="0.5" stroke-miterlimit="10"/>
<path d="M358.317 179.241L359.738 178.176L360.33 179.596L359.027 180.542L358.79 181.252L359.146 181.607L359.856 181.489L360.33 182.79L358.553 183.027L357.487 182.553L357.014 181.489L357.251 180.305L358.317 179.241Z" fill="white"/>
<path d="M361.515 177.111C361.515 176.874 361.396 176.756 361.396 176.519C361.396 175.336 362.344 174.39 363.529 174.39C364.713 174.39 365.661 175.336 365.661 176.519C365.661 177.702 364.713 178.649 363.529 178.649C363.055 178.649 362.699 178.531 362.344 178.294" fill="white"/>
<path d="M361.515 177.111C361.515 176.874 361.396 176.756 361.396 176.519C361.396 175.336 362.344 174.39 363.529 174.39C364.713 174.39 365.661 175.336 365.661 176.519C365.661 177.702 364.713 178.649 363.529 178.649C363.055 178.649 362.699 178.531 362.344 178.294" stroke="#2C2E3E" stroke-width="0.5" stroke-miterlimit="10"/>
<path d="M361.515 175.692C361.515 175.692 362.226 176.639 361.16 177.349C360.094 178.059 357.133 179.36 357.014 180.898C356.896 182.2 357.606 183.383 360.331 182.791" stroke="#2C2E3E" stroke-width="0.5" stroke-miterlimit="10"/>
<path d="M359.976 181.489C359.976 181.489 359.029 181.844 358.792 181.253C358.555 180.543 360.687 179.478 361.161 179.123C362.464 178.295 363.174 177.94 363.293 176.638C363.411 175.455 362.819 174.509 362.819 174.509" stroke="#2C2E3E" stroke-width="0.5" stroke-miterlimit="10"/>
<path d="M434.005 193.557C452.779 193.557 467.999 178.354 467.999 159.6C467.999 140.846 452.779 125.644 434.005 125.644C415.23 125.644 400.01 140.846 400.01 159.6C400.01 178.354 415.23 193.557 434.005 193.557Z" fill="white" stroke="#2C2E3E" stroke-width="0.5" stroke-miterlimit="10"/>
<path d="M413.394 161.966H408.656C407.353 161.966 406.287 160.901 406.287 159.6C406.287 158.298 407.353 157.233 408.656 157.233H413.394" fill="white"/>
<path d="M413.394 161.966H408.656C407.353 161.966 406.287 160.901 406.287 159.6C406.287 158.298 407.353 157.233 408.656 157.233H413.394" stroke="#2C2E3E" stroke-width="0.5" stroke-miterlimit="10"/>
<path d="M434.005 180.188C445.387 180.188 454.615 170.97 454.615 159.601C454.615 148.231 445.387 139.014 434.005 139.014C422.622 139.014 413.395 148.231 413.395 159.601C413.395 170.97 422.622 180.188 434.005 180.188Z" fill="white" stroke="#2C2E3E" stroke-width="0.5" stroke-miterlimit="10"/>
<path d="M434.005 175.809C442.967 175.809 450.232 168.552 450.232 159.6C450.232 150.648 442.967 143.391 434.005 143.391C425.043 143.391 417.777 150.648 417.777 159.6C417.777 168.552 425.043 175.809 434.005 175.809Z" fill="white" stroke="#2C2E3E" stroke-width="0.5" stroke-miterlimit="10"/>
<path d="M434.005 174.508C442.247 174.508 448.929 167.834 448.929 159.6C448.929 151.367 442.247 144.692 434.005 144.692C425.762 144.692 419.08 151.367 419.08 159.6C419.08 167.834 425.762 174.508 434.005 174.508Z" fill="#2C2E3E"/>
<path d="M352.987 410.31L321.835 401.318C320.058 400.845 319.11 398.952 319.584 397.177L338.299 332.814C338.773 331.039 340.668 330.092 342.445 330.566L373.597 339.558C375.374 340.031 376.321 341.924 375.848 343.699L357.133 408.062C356.54 409.837 354.764 410.784 352.987 410.31Z" fill="white" stroke="#2C2E3E" stroke-width="0.5" stroke-miterlimit="10"/>
<path d="M354.882 401.201L325.033 392.564C323.73 392.209 323.019 390.789 323.374 389.488L339.602 333.761C339.957 332.46 341.379 331.75 342.682 332.105L372.531 340.742C373.834 341.097 374.544 342.517 374.189 343.818L357.961 399.545C357.606 400.846 356.185 401.556 354.882 401.201Z" fill="white" stroke="#2C2E3E" stroke-width="0.4966" stroke-miterlimit="10"/>
<path d="M343.511 359.08L339.957 358.015C339.128 357.778 338.773 356.95 338.891 356.24L339.957 352.691C340.194 351.862 341.023 351.507 341.734 351.626L345.288 352.691C346.117 352.927 346.472 353.755 346.354 354.465L345.288 358.015C345.051 358.843 344.222 359.316 343.511 359.08Z" stroke="#2C2E3E" stroke-width="0.5" stroke-miterlimit="10"/>
<path d="M363.291 355.057L342.563 349.023C341.734 348.786 341.378 347.958 341.497 347.248L342.563 343.698C342.8 342.87 343.629 342.515 344.34 342.634L365.068 348.668C365.897 348.904 366.253 349.732 366.134 350.442L365.068 353.992C364.831 354.82 364.002 355.293 363.291 355.057Z" stroke="#2C2E3E" stroke-width="0.5" stroke-miterlimit="10"/>
<path d="M352.038 361.564L348.485 360.499C347.656 360.262 347.3 359.434 347.419 358.724L348.485 355.175C348.722 354.347 349.551 353.992 350.261 354.11L353.815 355.175C354.644 355.412 354.999 356.24 354.881 356.95L353.815 360.499C353.697 361.327 352.867 361.801 352.038 361.564Z" stroke="#2C2E3E" stroke-width="0.5" stroke-miterlimit="10"/>
<path d="M360.568 364.048L357.014 362.984C356.185 362.747 355.83 361.919 355.948 361.209L357.014 357.659C357.251 356.831 358.08 356.476 358.791 356.594L362.344 357.659C363.173 357.896 363.529 358.724 363.41 359.434L362.344 362.984C362.226 363.812 361.397 364.285 360.568 364.048Z" stroke="#2C2E3E" stroke-width="0.5" stroke-miterlimit="10"/>
<path d="M340.905 367.954L337.352 366.889C336.523 366.652 336.167 365.824 336.286 365.114L337.352 361.565C337.589 360.736 338.418 360.381 339.129 360.5L342.682 361.565C343.511 361.801 343.867 362.629 343.748 363.339L342.682 366.889C342.564 367.717 341.735 368.19 340.905 367.954Z" stroke="#2C2E3E" stroke-width="0.5" stroke-miterlimit="10"/>
<path d="M349.433 370.438L345.879 369.373C345.05 369.136 344.695 368.308 344.813 367.598L345.879 364.049C346.116 363.221 346.945 362.866 347.656 362.984L351.21 364.049C352.039 364.286 352.394 365.114 352.276 365.824L351.21 369.373C351.091 370.201 350.262 370.675 349.433 370.438Z" stroke="#2C2E3E" stroke-width="0.5" stroke-miterlimit="10"/>
<path d="M358.079 372.922L354.526 371.858C353.697 371.621 353.341 370.793 353.46 370.083L354.526 366.533C354.763 365.705 355.592 365.35 356.302 365.468L359.856 366.533C360.685 366.77 361.04 367.598 360.922 368.308L359.856 371.858C359.619 372.686 358.79 373.159 358.079 372.922Z" stroke="#2C2E3E" stroke-width="0.5" stroke-miterlimit="10"/>
<path d="M338.3 376.827L334.746 375.762C333.917 375.525 333.562 374.697 333.68 373.987L334.746 370.438C334.983 369.609 335.812 369.254 336.523 369.373L340.077 370.438C340.906 370.674 341.261 371.502 341.143 372.212L340.077 375.762C339.958 376.59 339.129 376.945 338.3 376.827Z" stroke="#2C2E3E" stroke-width="0.5" stroke-miterlimit="10"/>
<path d="M346.946 379.311L343.393 378.246C342.564 378.01 342.208 377.181 342.327 376.471L343.393 372.922C343.63 372.094 344.459 371.739 345.17 371.857L348.723 372.922C349.552 373.159 349.908 373.987 349.789 374.697L348.723 378.246C348.486 379.074 347.657 379.429 346.946 379.311Z" stroke="#2C2E3E" stroke-width="0.5" stroke-miterlimit="10"/>
<path d="M335.812 385.582L332.258 384.517C331.429 384.28 331.074 383.452 331.192 382.742L332.258 379.192C332.495 378.364 333.324 378.009 334.035 378.128L337.588 379.192C338.418 379.429 338.773 380.257 338.654 380.967L337.588 384.517C337.351 385.345 336.522 385.818 335.812 385.582Z" stroke="#2C2E3E" stroke-width="0.5" stroke-miterlimit="10"/>
<path d="M344.341 388.067L340.787 387.002C339.958 386.765 339.603 385.937 339.721 385.227L340.787 381.678C341.024 380.85 341.854 380.495 342.564 380.613L346.118 381.678C346.947 381.914 347.302 382.743 347.184 383.453L346.118 387.002C345.999 387.83 345.17 388.304 344.341 388.067Z" stroke="#2C2E3E" stroke-width="0.5" stroke-miterlimit="10"/>
<path d="M355.474 381.795L351.92 380.731C351.091 380.494 350.736 379.666 350.854 378.956L351.92 375.406C352.157 374.578 352.986 374.223 353.697 374.342L357.25 375.406C358.08 375.643 358.435 376.471 358.317 377.181L357.25 380.731C357.132 381.559 356.303 381.914 355.474 381.795Z" stroke="#2C2E3E" stroke-width="0.5" stroke-miterlimit="10"/>
<path d="M338.654 404.395C340.355 404.395 341.734 403.017 341.734 401.318C341.734 399.619 340.355 398.242 338.654 398.242C336.953 398.242 335.574 399.619 335.574 401.318C335.574 403.017 336.953 404.395 338.654 404.395Z" stroke="#2C2E3E" stroke-width="0.5" stroke-miterlimit="10"/>
</svg>
